<svg width="298" height="78" viewBox="0 0 298 78" fill="none" xmlns="http://www.w3.org/2000/svg">
<path d="M100.661 57.6221L102.394 54.5128H103.489L101.167 58.5556V61.9394H100.176V58.5556L97.8551 54.5128H98.936L100.661 57.6221Z" fill="#C4C4C4"/>
<path d="M112.448 58.2255C112.448 58.754 112.372 59.2619 112.219 59.7424C112.067 60.2228 111.852 60.6415 111.561 60.9847C111.277 61.3416 110.924 61.6093 110.515 61.7878C110.106 61.9662 109.676 62.0555 109.233 62.0555C108.789 62.0555 108.367 61.9662 107.951 61.7878C107.535 61.6093 107.189 61.3416 106.905 60.9847C106.621 60.6347 106.399 60.2228 106.246 59.7424C106.094 59.2619 106.018 58.754 106.018 58.2255C106.018 57.697 106.094 57.1959 106.246 56.7086C106.399 56.2281 106.614 55.8094 106.905 55.4525C107.196 55.1025 107.542 54.8416 107.951 54.6563C108.36 54.471 108.789 54.3818 109.233 54.3818C109.676 54.3818 110.099 54.471 110.515 54.6563C110.931 54.8416 111.277 55.1093 111.561 55.4525C111.852 55.8094 112.067 56.2281 112.219 56.7086C112.372 57.189 112.448 57.697 112.448 58.2255ZM111.443 58.2255C111.443 57.8068 111.388 57.4018 111.277 57.0106C111.166 56.6194 111.014 56.283 110.813 56.0085C110.612 55.7339 110.376 55.5349 110.092 55.3907C109.815 55.2535 109.524 55.1848 109.233 55.1848C108.935 55.1848 108.651 55.2535 108.374 55.3907C108.097 55.528 107.854 55.7339 107.653 56.0085C107.452 56.283 107.3 56.6194 107.189 57.0106C107.078 57.4018 107.023 57.8068 107.023 58.2255C107.023 58.6442 107.078 59.0491 107.189 59.4335C107.3 59.8247 107.452 60.1542 107.653 60.4356C107.854 60.7033 108.09 60.9092 108.374 61.0533C108.651 61.1906 108.942 61.2593 109.233 61.2593C109.524 61.2593 109.815 61.1906 110.092 61.0533C110.369 60.9161 110.612 60.7102 110.813 60.4356C111.014 60.1542 111.166 59.8247 111.277 59.4335C111.388 59.0423 111.443 58.6373 111.443 58.2255Z" fill="#C4C4C4"/>
<path d="M120.763 61.9457H119.648L116.689 56.0291V61.9457H115.74V54.5122H116.841L119.814 60.4425V54.5122H120.763V61.9457Z" fill="#C4C4C4"/>
<path d="M128.531 59.9139C128.531 60.6415 128.288 61.1837 127.81 61.5338C127.332 61.8838 126.681 62.0623 125.863 62.0623C125.551 62.0623 125.24 62.028 124.921 61.9593C124.602 61.8907 124.318 61.8152 124.075 61.7397V60.7376C124.325 60.8543 124.588 60.9504 124.858 61.0327C125.018 61.0808 125.198 61.1288 125.392 61.17C125.586 61.2112 125.773 61.2318 125.953 61.2318C126.154 61.2318 126.341 61.2112 126.514 61.1769C126.688 61.1425 126.854 61.0739 127 60.971C127.138 60.8886 127.263 60.7719 127.367 60.614C127.471 60.463 127.519 60.2709 127.519 60.0443C127.519 59.8316 127.471 59.6462 127.374 59.4952C127.277 59.3442 127.166 59.2138 127.041 59.104C126.771 58.8844 126.48 58.699 126.182 58.5549C125.967 58.4451 125.738 58.3215 125.489 58.1911C125.24 58.0607 124.997 57.9028 124.768 57.7244C124.54 57.5528 124.353 57.3469 124.214 57.1204C124.075 56.8939 124.006 56.6331 124.006 56.3379C124.006 55.6653 124.221 55.1711 124.651 54.8553C125.08 54.5396 125.634 54.3886 126.314 54.3886C126.487 54.3886 126.667 54.4023 126.84 54.4298C127.013 54.4572 127.173 54.4916 127.318 54.5259C127.589 54.5876 127.845 54.6563 128.081 54.7318V55.6584C127.886 55.5554 127.616 55.4525 127.263 55.3427C126.909 55.2397 126.57 55.1848 126.237 55.1848C125.891 55.1848 125.6 55.2809 125.357 55.4662C125.115 55.6515 124.997 55.9192 124.997 56.2555C124.997 56.3997 125.032 56.5301 125.108 56.6399C125.184 56.7497 125.267 56.8527 125.364 56.9419C125.475 57.0449 125.6 57.141 125.731 57.2233C125.87 57.3057 126.009 57.3881 126.154 57.4704C126.66 57.7175 127.041 57.9234 127.298 58.0882C127.554 58.246 127.762 58.4039 127.935 58.548C128.108 58.6991 128.254 58.8844 128.358 59.0971C128.455 59.3168 128.517 59.5845 128.531 59.9139Z" fill="#C4C4C4"/>
<path d="M131.718 61.9457V54.5122H135.786V55.3564H132.716V57.6421H135.654V58.4863H132.716V61.1014H135.876V61.9457H131.718Z" fill="#C4C4C4"/>
<path d="M140.262 61.9457H139.264V54.5122H140.262V61.9457Z" fill="#C4C4C4"/>
<path d="M149.409 54.5122H151.086C151.301 54.5122 151.529 54.5259 151.779 54.5465C152.028 54.5671 152.25 54.6014 152.444 54.6426C152.756 54.7181 153.04 54.8554 153.303 55.0476C153.566 55.2397 153.802 55.4868 154.01 55.7751C154.218 56.0565 154.384 56.3997 154.509 56.8047C154.633 57.2165 154.696 57.6901 154.696 58.2255C154.696 58.7471 154.633 59.2139 154.509 59.6257C154.384 60.0375 154.218 60.3876 154.01 60.6621C153.802 60.9504 153.566 61.1975 153.303 61.3897C153.04 61.5819 152.749 61.7192 152.444 61.7947C152.25 61.8358 152.028 61.8702 151.779 61.8907C151.529 61.9182 151.294 61.9251 151.086 61.9251H149.409V54.5122ZM150.393 55.3564V61.1014H151.113C151.252 61.1014 151.432 61.0945 151.64 61.0808C151.848 61.0671 152.014 61.0465 152.139 61.0053C152.298 60.9641 152.472 60.8818 152.652 60.7514C152.832 60.6209 153.005 60.4425 153.164 60.216C153.317 59.9963 153.449 59.7218 153.553 59.3992C153.656 59.0766 153.705 58.6854 153.705 58.2392C153.705 57.7725 153.65 57.3812 153.553 57.0586C153.456 56.736 153.324 56.4684 153.164 56.2487C153.005 56.0222 152.832 55.8438 152.652 55.7133C152.472 55.5829 152.298 55.5006 152.139 55.4594C152.014 55.4251 151.848 55.3976 151.64 55.3839C151.432 55.3702 151.252 55.3633 151.113 55.3633H150.393V55.3564Z" fill="#C4C4C4"/>
<path d="M158.008 61.9457V54.5122H162.076V55.3564H159.006V57.6421H161.944V58.4863H159.006V61.1014H162.166V61.9457H158.008Z" fill="#C4C4C4"/>
<path d="M169.705 59.9139C169.705 60.6415 169.462 61.1837 168.984 61.5338C168.506 61.8838 167.855 62.0623 167.037 62.0623C166.725 62.0623 166.413 62.028 166.094 61.9593C165.776 61.8907 165.492 61.8152 165.249 61.7397V60.7376C165.499 60.8543 165.762 60.9504 166.032 61.0327C166.192 61.0808 166.372 61.1288 166.566 61.17C166.76 61.2112 166.947 61.2318 167.127 61.2318C167.328 61.2318 167.515 61.2112 167.688 61.1769C167.861 61.1425 168.028 61.0739 168.173 60.971C168.312 60.8886 168.437 60.7719 168.541 60.614C168.644 60.463 168.693 60.2709 168.693 60.0443C168.693 59.8316 168.644 59.6462 168.547 59.4952C168.45 59.3442 168.34 59.2138 168.215 59.104C167.945 58.8844 167.654 58.699 167.356 58.5549C167.141 58.4451 166.912 58.3215 166.663 58.1911C166.413 58.0607 166.171 57.9028 165.942 57.7244C165.713 57.5528 165.526 57.3469 165.388 57.1204C165.249 56.8939 165.18 56.6331 165.18 56.3379C165.18 55.6653 165.395 55.1711 165.824 54.8553C166.254 54.5396 166.808 54.3886 167.487 54.3886C167.661 54.3886 167.841 54.4023 168.014 54.4298C168.187 54.4572 168.347 54.4916 168.492 54.5259C168.762 54.5876 169.019 54.6563 169.254 54.7318V55.6584C169.06 55.5554 168.79 55.4525 168.437 55.3427C168.083 55.2397 167.744 55.1848 167.411 55.1848C167.065 55.1848 166.774 55.2809 166.531 55.4662C166.289 55.6515 166.171 55.9192 166.171 56.2555C166.171 56.3997 166.205 56.5301 166.282 56.6399C166.358 56.7497 166.441 56.8527 166.538 56.9419C166.649 57.0449 166.774 57.141 166.905 57.2233C167.044 57.3057 167.182 57.3881 167.328 57.4704C167.834 57.7175 168.215 57.9234 168.471 58.0882C168.728 58.246 168.936 58.4039 169.109 58.548C169.282 58.6991 169.427 58.8844 169.531 59.0971C169.628 59.3168 169.691 59.5845 169.705 59.9139Z" fill="#C4C4C4"/>
<path d="M173.925 61.9457H172.927V54.5122H173.925V61.9457Z" fill="#C4C4C4"/>
<path d="M182.87 56.6399H181.824C181.824 56.3516 181.782 56.1251 181.699 55.9604C181.616 55.7957 181.505 55.6515 181.374 55.5349C181.242 55.4319 181.089 55.3495 180.923 55.2946C180.757 55.2397 180.584 55.2054 180.417 55.1985C180.133 55.1985 179.856 55.2603 179.593 55.377C179.329 55.4937 179.101 55.679 178.893 55.9261C178.685 56.1801 178.526 56.5095 178.408 56.9076C178.29 57.3057 178.235 57.6969 178.235 58.095C178.235 58.349 178.269 58.6579 178.332 59.0148C178.394 59.3717 178.519 59.7286 178.699 60.0718C178.865 60.3876 179.115 60.6552 179.433 60.8817C179.752 61.1082 180.161 61.2249 180.667 61.2249C180.93 61.2249 181.186 61.1975 181.429 61.1357C181.671 61.0739 181.803 61.0396 181.824 61.019V58.7677H180.133V57.9097H182.815V61.4926C182.448 61.6848 182.08 61.8289 181.72 61.9182C181.36 62.0074 180.937 62.0486 180.452 62.0486C179.884 62.0486 179.399 61.9319 178.99 61.6917C178.581 61.4583 178.241 61.1494 177.971 60.7719C177.701 60.3876 177.507 59.9689 177.389 59.509C177.271 59.0491 177.216 58.5755 177.216 58.0882C177.216 57.6009 177.278 57.141 177.396 56.6948C177.521 56.2556 177.715 55.8643 177.985 55.5211C178.248 55.1848 178.588 54.9103 178.99 54.6906C179.392 54.471 179.87 54.3611 180.417 54.3611C180.75 54.3611 181.062 54.4161 181.36 54.5259C181.658 54.6357 181.921 54.7798 182.136 54.972C182.357 55.1642 182.538 55.3976 182.669 55.6584C182.801 55.933 182.87 56.2556 182.87 56.6399Z" fill="#C4C4C4"/>
<path d="M191.4 61.9457H190.285L187.326 56.0291V61.9457H186.376V54.5122H187.478L190.451 60.4425V54.5122H191.4V61.9457Z" fill="#C4C4C4"/>
<path d="M200.498 54.5122H202.175C202.39 54.5122 202.619 54.5259 202.868 54.5465C203.118 54.5671 203.339 54.6014 203.533 54.6426C203.845 54.7181 204.129 54.8554 204.393 55.0476C204.656 55.2397 204.891 55.4868 205.099 55.7751C205.307 56.0565 205.474 56.3997 205.598 56.8047C205.723 57.2165 205.785 57.6901 205.785 58.2255C205.785 58.7471 205.723 59.2139 205.598 59.6257C205.474 60.0375 205.307 60.3876 205.099 60.6621C204.891 60.9504 204.656 61.1975 204.393 61.3897C204.129 61.5819 203.838 61.7192 203.533 61.7947C203.339 61.8358 203.118 61.8702 202.868 61.8907C202.619 61.9182 202.383 61.9251 202.175 61.9251H200.498V54.5122ZM201.482 55.3564V61.1014H202.203C202.341 61.1014 202.522 61.0945 202.73 61.0808C202.937 61.0671 203.104 61.0465 203.228 61.0053C203.388 60.9641 203.561 60.8818 203.741 60.7514C203.921 60.6209 204.095 60.4425 204.254 60.216C204.406 59.9963 204.538 59.7218 204.642 59.3992C204.746 59.0766 204.794 58.6854 204.794 58.2392C204.794 57.7725 204.739 57.3812 204.642 57.0586C204.545 56.736 204.413 56.4684 204.254 56.2487C204.095 56.0222 203.921 55.8438 203.741 55.7133C203.561 55.5829 203.388 55.5006 203.228 55.4594C203.104 55.4251 202.937 55.3976 202.73 55.3839C202.522 55.3702 202.341 55.3633 202.203 55.3633H201.482V55.3564Z" fill="#C4C4C4"/>
<path d="M209.098 61.9457V54.5122H213.165V55.3564H210.095V57.6421H213.033V58.4863H210.095V61.1014H213.255V61.9457H209.098Z" fill="#C4C4C4"/>
<path d="M221.633 61.9457H220.517L217.558 56.0291V61.9457H216.609V54.5122H217.711L220.683 60.4425V54.5122H221.633V61.9457Z" fill="#C4C4C4"/>
<path d="M230.162 55.3564H227.952V61.9457H226.961V55.3564H224.751V54.5122H230.162V55.3564Z" fill="#C4C4C4"/>
<path d="M237.861 61.9457H236.821L236.08 59.66H233.586L232.858 61.9457H231.819L234.327 54.5122H235.352L237.861 61.9457ZM235.817 58.8158L234.847 55.7614L233.863 58.8158H235.817Z" fill="#C4C4C4"/>
<path d="M245.053 61.9457H240.889V54.5122H241.88V61.1014H245.053V61.9457Z" fill="#C4C4C4"/>
<path d="M258.919 56.6399H257.873C257.873 56.3517 257.831 56.1251 257.748 55.9604C257.665 55.7957 257.554 55.6516 257.422 55.5349C257.291 55.4319 257.138 55.3495 256.972 55.2946C256.806 55.2397 256.632 55.2054 256.466 55.1985C256.182 55.1985 255.905 55.2603 255.648 55.377C255.392 55.4937 255.156 55.679 254.942 55.9261C254.734 56.1801 254.574 56.5095 254.456 56.9076C254.339 57.3057 254.283 57.7038 254.283 58.1019C254.283 58.3627 254.311 58.6647 254.38 59.0217C254.443 59.3786 254.567 59.7355 254.748 60.0787C254.935 60.4013 255.177 60.669 255.496 60.8955C255.808 61.122 256.217 61.2318 256.715 61.2318C257.069 61.2318 257.408 61.17 257.734 61.0533C258.06 60.9367 258.372 60.7651 258.683 60.5523V61.575C258.593 61.623 258.496 61.6711 258.385 61.726C258.275 61.7809 258.129 61.829 257.956 61.877C257.526 61.9937 257.048 62.0555 256.508 62.0555C255.939 62.0555 255.454 61.9388 255.052 61.7054C254.65 61.472 254.304 61.1632 254.027 60.7857C253.75 60.4081 253.549 59.9826 253.445 59.5227C253.334 59.0628 253.279 58.5892 253.279 58.1019C253.279 57.6146 253.341 57.1479 253.459 56.7086C253.583 56.2624 253.777 55.8712 254.048 55.528C254.311 55.1917 254.65 54.9171 255.052 54.6975C255.454 54.4778 255.932 54.368 256.48 54.368C256.812 54.368 257.124 54.4229 257.422 54.5328C257.72 54.6426 257.983 54.7867 258.198 54.9789C258.42 55.1711 258.6 55.4045 258.732 55.6653C258.85 55.933 258.919 56.2556 258.919 56.6399Z" fill="#C4C4C4"/>
<path d="M266.299 61.9457H262.134V54.5122H263.125V61.1014H266.299V61.9457Z" fill="#C4C4C4"/>
<path d="M270.352 61.9457H269.354V54.5122H270.352V61.9457Z" fill="#C4C4C4"/>
<path d="M279 61.9457H277.884L274.926 56.0291V61.9457H273.976V54.5122H275.078L278.051 60.4425V54.5122H279V61.9457Z" fill="#C4C4C4"/>
<path d="M283.622 61.9457H282.624V54.5122H283.622V61.9457Z" fill="#C4C4C4"/>
<path d="M292.567 56.6399H291.521C291.521 56.3517 291.48 56.1251 291.396 55.9604C291.313 55.7957 291.202 55.6516 291.071 55.5349C290.939 55.4319 290.787 55.3495 290.62 55.2946C290.454 55.2397 290.281 55.2054 290.114 55.1985C289.83 55.1985 289.553 55.2603 289.297 55.377C289.04 55.4937 288.805 55.679 288.59 55.9261C288.382 56.1801 288.223 56.5095 288.105 56.9076C287.987 57.3057 287.932 57.7038 287.932 58.1019C287.932 58.3627 287.959 58.6647 288.029 59.0217C288.091 59.3786 288.216 59.7355 288.396 60.0787C288.583 60.4013 288.826 60.669 289.144 60.8955C289.456 61.122 289.865 61.2318 290.364 61.2318C290.717 61.2318 291.057 61.17 291.383 61.0533C291.708 60.9367 292.02 60.7651 292.332 60.5523V61.575C292.242 61.623 292.145 61.6711 292.034 61.726C291.923 61.7809 291.777 61.829 291.604 61.877C291.175 61.9937 290.697 62.0555 290.156 62.0555C289.588 62.0555 289.103 61.9388 288.701 61.7054C288.299 61.472 287.953 61.1632 287.675 60.7857C287.398 60.4081 287.197 59.9826 287.093 59.5227C286.982 59.0628 286.927 58.5892 286.927 58.1019C286.927 57.6146 286.989 57.1479 287.107 56.7086C287.232 56.2624 287.426 55.8712 287.696 55.528C287.959 55.1917 288.299 54.9171 288.701 54.6975C289.103 54.4778 289.581 54.368 290.128 54.368C290.461 54.368 290.773 54.4229 291.071 54.5328C291.369 54.6426 291.632 54.7867 291.847 54.9789C292.069 55.1711 292.249 55.4045 292.38 55.6653C292.498 55.933 292.567 56.2556 292.567 56.6399Z" fill="#C4C4C4"/>
<path d="M100.44 15.4641C102.768 15.4641 104.708 16.1985 106.26 17.6674L106.33 17.736H114.139V12.952H117.839V36.4947H114.139V28.622H105.99C104.486 29.9329 102.636 30.5919 100.44 30.5919C98.1115 30.5919 96.1713 29.8574 94.6191 28.3886C93.067 26.9197 92.2909 25.1352 92.2909 23.028C92.2909 20.9277 93.067 19.1362 94.6191 17.6674C96.1713 16.1985 98.1115 15.4641 100.44 15.4641ZM100.44 18.6146C99.1578 18.6146 98.1115 19.047 97.2869 19.905C96.4623 20.7629 96.0535 21.8062 96.0535 23.028C96.0535 24.2497 96.4623 25.293 97.2869 26.151C98.1115 27.009 99.1578 27.4414 100.44 27.4414C101.715 27.4414 102.768 27.009 103.593 26.151C104.417 25.293 104.826 24.2497 104.826 23.028C104.826 21.8062 104.417 20.7698 103.593 19.905C102.768 19.047 101.722 18.6146 100.44 18.6146ZM100.405 45.246V34.0512H104.14V42.0544H118.047V45.246H100.405ZM108.318 20.9208C108.498 21.5797 108.595 22.2798 108.595 23.0211C108.595 23.8791 108.471 24.6821 108.221 25.4303H114.146V20.9208H108.318Z" fill="#C4C4C4"/>
<path d="M130.506 24.9567L137.151 33.811L134.275 35.8495L129.037 28.6906C127.692 31.4018 125.773 33.8796 123.285 36.1172L120.645 33.9826C125.143 29.6378 127.519 24.7096 127.769 19.1911V16.2397H131.469V18.141C131.441 20.5364 131.122 22.8083 130.506 24.9567ZM133.347 22.9937H138.585V13.6315H142.182V42.3633H138.585V26.1785H133.347V22.9937ZM148.522 44.3949H144.891V12.952H148.522V44.3949Z" fill="#C4C4C4"/>
<path d="M169.649 34.5591H153.04V17.0565H167.356V20.2482H156.775V31.3675H169.649V34.5591ZM176.911 44.3949H173.176V12.952H176.911V44.3949Z" fill="#C4C4C4"/>
<path d="M192.148 26.5217L199.064 33.3031L196.459 35.6436L190.056 29.2328C188.005 31.6077 185.406 33.8384 182.281 35.9182L179.814 33.5776C186.272 29.1024 190.077 24.6547 191.22 20.2482H181.699V17.0908H195.669C195.267 20.4335 194.089 23.5771 192.148 26.5217ZM209.957 27.9425H204.545V44.3949H200.81V12.952H204.545V24.5861H209.957V27.9425Z" fill="#C4C4C4"/>
<path d="M219.235 15.4641C221.563 15.4641 223.51 16.1985 225.076 17.6674C226.642 19.1362 227.425 20.9208 227.425 23.028C227.425 25.1283 226.642 26.9198 225.076 28.3886C223.51 29.8574 221.563 30.5919 219.235 30.5919C216.907 30.5919 214.96 29.8574 213.394 28.3886C211.828 26.9198 211.052 25.1352 211.052 23.028C211.052 20.9277 211.835 19.1362 213.394 17.6674C214.96 16.1985 216.907 15.4641 219.235 15.4641ZM219.235 18.6146C217.953 18.6146 216.9 19.047 216.068 19.905C215.237 20.7629 214.821 21.8062 214.821 23.028C214.821 24.2497 215.237 25.293 216.068 26.151C216.9 27.009 217.96 27.4414 219.235 27.4414C220.51 27.4414 221.57 27.009 222.402 26.151C223.233 25.293 223.649 24.2497 223.649 23.028C223.649 21.8062 223.233 20.7698 222.402 19.905C221.57 19.047 220.517 18.6146 219.235 18.6146ZM218.244 45.246V33.9483H221.979V42.0544H235.886V45.246H218.244ZM231.943 36.2202V12.952H235.678V36.2202H231.943Z" fill="#C4C4C4"/>
<path d="M251.498 27.6748L258.039 33.2687L255.537 35.7466L249.239 30.1869C247.049 32.2872 244.201 34.2709 240.709 36.1241L238.381 33.7492C244.749 30.1526 248.608 26.707 249.959 23.4055H240.508V20.2138H254.685C254.547 21.1199 254.332 22.0327 254.034 22.9593C253.507 24.5861 252.662 26.1579 251.498 27.6748ZM252.766 18.4155H248.04C245.781 18.4155 243.806 17.9282 242.115 16.9535L243.141 14.208C245.192 14.867 247.021 15.1895 248.622 15.1895H252.766V18.4155ZM264.102 44.3949H260.367V12.952H264.102V44.3949Z" fill="#C4C4C4"/>
<path d="M273.72 33.9826V25.094H277.455V33.9826C278.64 33.962 280.081 33.9277 281.772 33.8796C283.85 33.811 285.992 33.5639 288.209 33.1315V36.3231C286.179 36.7555 284.114 37.0026 282.028 37.0713C279.942 37.1399 278.106 37.1742 276.533 37.1742H267.186V33.9826H273.72ZM285.125 16.7133C285.125 19.8569 285.001 22.5063 284.751 24.6684C284.502 26.8305 284.169 28.8485 283.76 30.7223H280.06C280.379 29.1162 280.684 27.3728 280.968 25.4784C281.252 23.584 281.397 21.7307 281.397 19.8981H269.514V16.7064H285.125V16.7133ZM298 28.2856H292.588V44.4018H288.853V12.952H292.588V25.094H298V28.2856Z" fill="#C4C4C4"/>
<path d="M53.0158 69.8527C53.4593 69.6468 53.6464 69.1045 53.4247 68.6447C53.2029 68.1848 52.6555 67.9858 52.219 68.1985C51.7824 68.4113 51.5884 68.9604 51.8101 69.4134C52.0319 69.8733 52.5724 70.0655 53.0158 69.8527Z" fill="#C4C4C4"/>
<path d="M14.69 60.3601C14.6346 60.4013 14.5861 60.4493 14.5307 60.4836C14.8286 60.82 15.182 61.2249 15.182 61.2249L15.6047 60.868C15.6047 60.868 15.2236 60.4425 14.9326 60.1061C14.8563 60.2022 14.7732 60.2846 14.69 60.3601Z" fill="#C4C4C4"/>
<path d="M12.8053 58.2186C12.3757 58.5892 12.3064 59.207 12.6528 59.5913C12.9924 59.9826 13.6229 60.0032 14.0456 59.6325C14.4752 59.2687 14.5376 58.6441 14.1981 58.2598C13.8447 57.8685 13.228 57.8479 12.8053 58.2186Z" fill="#C4C4C4"/>
<path d="M7.67068 27.0776C6.86688 26.8305 6.0908 26.858 5.49489 27.16C5.0237 27.4002 4.70495 27.7915 4.53865 28.2788C4.34463 28.8965 4.2892 30.0359 6.15317 30.6194C7.66375 31.093 8.98724 30.5713 9.38221 29.3358C9.4515 29.1162 9.53465 28.6769 9.29906 28.217C9.0496 27.7228 8.50219 27.3385 7.67068 27.0776Z" fill="#C4C4C4"/>
<path d="M63.2088 15.1621C63.4097 15.3612 63.4929 15.4023 63.6384 15.4298C63.8255 15.4573 64.2135 15.4298 64.6847 14.9631C65.4053 14.2424 65.1074 13.5834 64.8233 13.302L64.5669 13.0618L62.8276 14.7983L63.2088 15.1621Z" fill="#C4C4C4"/>
<path d="M39.3652 0C17.6627 0 0 17.4889 0 38.9863C0 60.4905 17.6627 78 39.3652 78C61.0815 78 78.7303 60.4905 78.7303 38.9863C78.7303 17.4889 61.0815 0 39.3652 0ZM71.6902 22.1357L71.9258 22.019L72.9513 24.0987L72.7088 24.2154C72.5078 23.8036 72.4178 23.6595 72.0921 23.8242C72.0921 23.8242 68.5166 25.5607 68.1216 25.7598C67.7336 25.9451 67.9692 26.3157 68.1355 26.6452L67.9068 26.755L66.7981 24.5174L67.0406 24.4007C67.2416 24.7988 67.3317 24.9636 67.6643 24.8057C67.6643 24.8057 71.4199 22.9799 71.6348 22.8701C72.0574 22.6573 71.6902 22.1357 71.6902 22.1357ZM66.812 20.2413L66.8397 19.8226C66.909 18.8342 67.1584 18.2645 67.692 17.8939C68.4057 17.4134 69.3065 17.6742 69.9024 18.5322C70.3944 19.2529 70.3736 19.5961 70.3736 19.5961L69.355 20.2825L69.1749 20.0148C69.1749 20.0148 69.4936 19.8706 69.6045 19.5137C69.6599 19.3421 69.7015 19.0676 69.459 18.7175C69.1818 18.3126 68.773 18.2027 68.4265 18.443C68.1909 18.6008 68.0662 18.8274 68.0177 19.6235L68.0038 19.8775C67.9345 21.0238 67.6989 21.5729 67.103 21.9778C66.8328 22.1563 66.2784 22.4171 65.5855 22.1288C65.2321 21.9778 64.9203 21.7101 64.6501 21.312C64.4006 20.9483 64.1234 20.406 64.1858 20.0903L65.3568 19.2941L65.5162 19.5412C65.5162 19.5412 65.2044 19.8226 65.1212 19.9256C64.7263 20.4129 64.9411 20.8796 65.1074 21.1199C65.4469 21.614 65.9597 21.6552 66.2646 21.4493C66.5764 21.2503 66.7704 20.9688 66.812 20.2413ZM63.68 11.5517L65.246 13.0892C65.5647 13.4118 65.9112 13.7893 66.0082 14.2973C66.0498 14.5032 66.0359 15.0042 65.6479 15.4023C65.2182 15.8279 64.657 15.9857 63.7908 15.9034C63.777 15.9857 63.7492 16.2534 63.7492 16.2534C63.6522 17.1251 63.576 17.8046 63.5691 18.3469C63.5622 18.9029 63.7285 19.1499 63.7908 19.246L63.9155 19.397L63.7423 19.5686L63.2018 19.047C62.9108 18.7518 62.7999 18.6008 62.7237 18.3743C62.6198 18.0312 62.6544 17.6056 62.7653 16.8712L62.9732 15.6014L62.4951 15.1278L61.3171 16.3152C61.0053 16.6172 61.3517 16.8849 61.622 17.1526L61.4418 17.3379L59.661 15.5808L59.8481 15.3817C60.1737 15.7043 60.3123 15.8279 60.5687 15.5671C60.5687 15.5671 63.5137 12.6225 63.68 12.4509C64.0126 12.1214 63.4929 11.7439 63.4929 11.7439L63.68 11.5517ZM58.2197 7.74234L61.2686 9.7603L60.6241 10.7212L60.4024 10.5771C60.6172 10.2682 60.7558 10.0211 60.3331 9.7397C60.146 9.61616 59.4392 9.14942 59.4392 9.14942L58.3721 10.7144L59.2868 11.3252C59.5917 11.5312 59.6679 11.4282 59.8896 11.1125L60.1183 11.2635L59.2522 12.5333L59.0304 12.3754C59.2522 12.0597 59.3145 11.9498 59.0027 11.7439L58.088 11.1331V11.1399L56.82 13.0137C56.82 13.0137 57.5891 13.5216 57.797 13.6589C58.1158 13.8717 58.4137 13.8374 58.7255 13.3706L58.9473 13.5285L58.2474 14.5718L55.1292 12.5058L55.2886 12.2656C55.6489 12.5058 55.7875 12.6499 56.1271 12.142C56.1271 12.142 58.1088 9.20433 58.4068 8.75818C58.6978 8.33263 58.2751 8.08553 58.0742 7.95512L58.2197 7.74234ZM51.1033 4.31732L53.0851 5.16843L52.9812 5.42239L52.7802 5.34002C52.6832 5.29884 52.6139 5.33316 52.6001 5.35375C52.5446 5.39493 52.5516 5.51162 52.5446 5.55966L52.503 6.33527C52.4615 7.21383 52.3575 9.23178 52.3575 9.37592C52.4892 9.25238 53.3831 8.36695 53.3831 8.36695L54.9699 6.78828C55.0669 6.6716 55.157 6.55491 55.1777 6.46568C55.1916 6.40391 55.1431 6.349 55.0807 6.31468L54.8798 6.23231L54.9907 5.99208L56.6814 6.72651L56.6121 6.99419L56.425 6.91183C56.0647 6.75396 55.7113 7.06283 55.7113 7.06283L54.6234 8.03062L51.6092 10.783L51.3874 10.68L51.4775 5.41552C51.4914 5.1547 51.4498 4.92819 51.3736 4.81151C51.2766 4.67423 50.9994 4.55755 50.9994 4.55755L51.1033 4.31732ZM45.5669 8.53168C46.0103 8.62777 46.1905 8.66209 46.2736 8.30517C46.2736 8.30517 47.2229 4.26241 47.2715 4.04277C47.3754 3.57603 46.731 3.52798 46.731 3.52798L46.7864 3.27402L49.0592 3.79567L49.0107 4.04963C48.5742 3.95354 48.394 3.91922 48.3108 4.27614C48.3108 4.27614 47.417 8.13358 47.313 8.53854C47.216 8.95723 47.6456 9.00528 48.0198 9.09451L47.9574 9.34847L45.5114 8.78564L45.5669 8.53168ZM37.4527 7.79725C37.7853 7.81785 38.1248 7.87276 38.1664 7.25502C38.201 6.61668 38.4574 2.45723 38.4574 2.45723L38.8108 2.48469C39.4345 3.19852 42.414 6.64414 42.518 6.76082C42.518 6.76082 42.6773 4.10454 42.712 3.53485C42.7466 2.96515 42.2893 2.96515 42.0052 2.9377L42.0191 2.67687L43.9593 2.79356L43.9385 3.06811C43.6336 3.04752 43.3287 2.99947 43.2941 3.56917C43.2663 4.13886 42.9961 8.40813 42.9961 8.40813L42.615 8.38068L38.9425 4.17318L38.7554 7.28247C38.7069 7.94826 39.1919 7.90708 39.5661 7.92767L39.5522 8.20222L37.4458 8.07181L37.4527 7.79725ZM31.5628 3.36325L31.6182 3.63094C31.1748 3.71331 30.9946 3.76135 31.0708 4.11827L31.5767 6.60296C31.8053 7.74234 32.1449 8.05121 32.4705 8.22967C32.8309 8.415 33.1427 8.3944 33.406 8.33263C33.5792 8.29831 34.0227 8.17476 34.2929 7.77666C34.5909 7.32365 34.4939 6.70591 34.3414 5.9509C34.3414 5.9509 33.8772 3.65153 33.8633 3.55544C33.7663 3.09556 33.1565 3.31521 33.1565 3.31521L33.1011 3.06811L35.0898 2.67001L35.1383 2.92397C34.6948 3.02006 34.5285 3.06125 34.5978 3.41816L35.0552 5.66948C35.2215 6.50686 35.3046 7.36484 34.7918 8.0169C34.3414 8.60032 33.7871 8.76505 33.3575 8.86114C33.0387 8.92291 32.2835 9.07392 31.6044 8.67582C31.0708 8.36009 30.7382 7.79039 30.5442 6.85692C30.5442 6.85692 30.0522 4.434 30.0314 4.32418C29.9344 3.86431 29.3247 4.08395 29.3247 4.08395L29.2692 3.82313L31.5628 3.36325ZM23.31 6.18427L23.4278 6.41763C23.026 6.62355 22.8735 6.71278 23.0398 7.04224C23.0398 7.04224 24.8622 10.5565 25.0632 10.934C25.2641 11.3184 25.6314 11.0781 25.964 10.8997L26.0818 11.1331L23.8505 12.2656L23.7258 12.0391C24.1277 11.8332 24.294 11.7371 24.1277 11.4145C24.1277 11.4145 22.2152 7.72862 22.1113 7.51584C21.8896 7.09715 21.3629 7.47466 21.3629 7.47466L21.2451 7.24129L23.31 6.18427ZM18.7437 8.65523L19.4366 9.5887L19.2218 9.74657C18.9931 9.44456 18.813 9.23865 18.4041 9.53379C18.2309 9.6642 17.5449 10.1721 17.5449 10.1721L18.6882 11.689L19.5682 11.037C19.8662 10.8173 19.7969 10.7075 19.5682 10.3918L19.7831 10.2408L20.6977 11.4625L20.4898 11.6204C20.2542 11.3115 20.1711 11.2154 19.8662 11.4419L18.9931 12.0871C18.9931 12.094 18.9931 12.094 18.9931 12.094L20.3582 13.8992C20.3582 13.8992 21.0996 13.3501 21.3075 13.2059C21.6124 12.9725 21.6747 12.6843 21.3352 12.245L21.55 12.0871L22.3192 13.0892L19.3119 15.3131L19.1386 15.0866C19.4851 14.8326 19.6653 14.7571 19.298 14.2698C19.298 14.2698 17.1638 11.4351 16.8381 11.0095C16.5194 10.5908 16.1521 10.9065 15.9512 11.0576L15.7987 10.8448L18.7437 8.65523ZM12.833 13.5766C13.4428 12.9382 13.7892 12.897 13.7892 12.897L14.6762 13.7413L14.4544 13.9678C14.4544 13.9678 14.2396 13.7001 13.8724 13.6658C13.6922 13.6452 13.4081 13.6589 13.1032 13.9678C12.7637 14.3247 12.7429 14.7365 13.0478 15.0317C13.2557 15.2239 13.5051 15.3062 14.2951 15.1758L14.5515 15.1346C15.6948 14.963 16.2768 15.0797 16.8035 15.5739C17.0391 15.8004 17.4132 16.2809 17.2747 17.0153C17.2054 17.3997 16.9975 17.7497 16.6649 18.0929C16.36 18.4155 15.868 18.7862 15.5493 18.7999L14.5237 17.8321L14.7247 17.6262C14.7247 17.6262 15.0712 17.8664 15.189 17.9282C15.7572 18.2165 16.1729 17.9076 16.3808 17.6948C16.7965 17.2624 16.7272 16.7545 16.457 16.5005C16.2006 16.2603 15.8819 16.1162 15.1612 16.226L14.7316 16.2878C13.7407 16.4319 13.124 16.3015 12.6528 15.8553C12.0361 15.2582 12.0985 14.3316 12.833 13.5766ZM6.85997 21.6758C7.79542 21.4699 12.2717 20.4952 12.4172 20.4678C12.4172 20.4678 10.1306 19.0676 9.63861 18.7587C9.14663 18.4567 8.93182 18.8617 8.77245 19.1019L8.54379 18.9646L9.56932 17.3242L9.79798 17.4615C9.63168 17.7223 9.44459 17.9625 9.93657 18.2714C10.4285 18.5665 14.1011 20.811 14.1011 20.811L13.9001 21.1404L8.41213 22.3622L11.0938 24.0095C11.6689 24.3527 11.856 23.9134 12.05 23.6045L12.2856 23.7418L11.17 25.5195L10.9413 25.3823C11.1145 25.1008 11.3224 24.8332 10.7889 24.5037C10.2415 24.1742 6.65902 21.9847 6.65902 21.9847L6.85997 21.6758ZM7.28266 49.3231C6.67288 49.3231 6.18091 48.8221 6.18091 48.2181C6.18091 47.6209 6.67288 47.1199 7.28266 47.1199C7.89936 47.1199 8.39134 47.6209 8.39134 48.2181C8.39134 48.8221 7.89936 49.3231 7.28266 49.3231ZM8.27354 37.1811L8.02409 37.1536C8.05874 36.7967 8.07259 36.5359 7.59448 36.5016C7.11636 36.4604 6.36107 36.3918 6.36107 36.3918C5.97996 36.3574 5.82751 36.4055 5.59192 36.481C5.48798 36.5222 3.78338 37.3458 3.37455 37.5655C3.11124 37.7096 2.90336 37.8675 2.81328 38.0048C2.69548 38.1695 2.6747 38.4646 2.6747 38.4646L2.41831 38.4372L2.6054 36.33L2.86179 36.3643C2.86179 36.3643 2.84793 36.4879 2.85486 36.529L2.86179 36.5702C2.86872 36.6114 2.89643 36.6251 2.93108 36.6251C2.98651 36.6389 3.11817 36.584 3.15975 36.5702C3.33991 36.5016 5.34939 35.5818 5.34939 35.5818C5.34939 35.5818 3.65172 34.4287 3.54778 34.3738C3.4092 34.2983 3.29833 34.2503 3.20132 34.2434C3.13203 34.2434 3.06966 34.2846 3.06966 34.3326C3.06274 34.3807 3.05581 34.5248 3.05581 34.5248L2.77864 34.4974L2.95187 32.6441L3.21518 32.6716C3.21518 32.6716 3.20132 32.802 3.20132 32.8706C3.19439 32.953 3.20825 33.056 3.25675 33.1727C3.31219 33.3168 3.38148 33.3923 3.56164 33.5708C3.84574 33.8316 5.46719 35.0053 5.75822 35.1631C6.00074 35.2936 6.22248 35.3142 6.465 35.3279C6.465 35.3279 7.13714 35.3828 7.68456 35.4377C8.23197 35.4926 8.23197 35.1014 8.26661 34.6895L8.50221 34.7101L8.27354 37.1811ZM6.03539 31.7587C5.26624 31.5185 4.62875 30.9968 4.28229 30.3242C3.92196 29.6378 3.88732 28.821 4.16449 27.9356C4.44859 27.0364 4.96135 26.3775 5.64042 26.0275C6.25713 25.7049 6.99163 25.6774 7.76771 25.9176C8.59229 26.1785 9.24364 26.707 9.61089 27.4002C9.97814 28.1072 10.0336 28.924 9.75641 29.7682C9.13277 31.7313 7.3866 32.1774 6.03539 31.7587ZM12.7498 64.7735C12.7083 64.7186 9.5901 61.17 9.5416 61.1151C9.58317 61.0739 10.6849 60.1336 10.6849 60.1336C10.8443 59.9963 10.9205 59.7767 10.8443 59.6874C10.872 59.66 10.9205 59.6188 10.9482 59.5982C10.9898 59.6394 11.7728 60.5317 11.7728 60.5317C11.7312 60.5729 10.8166 61.3553 10.8166 61.3553C10.8166 61.3553 13.3042 64.1901 13.3527 64.2381C13.3042 64.2862 12.8053 64.7255 12.7498 64.7735ZM14.004 63.5861C13.9625 63.538 13.3735 62.8722 13.3319 62.8242C13.3804 62.783 14.5792 61.7466 14.5792 61.7466C14.5792 61.7466 14.011 61.1014 13.7199 60.765C13.1448 60.8062 12.5281 60.5729 12.1054 60.0855C11.4056 59.2962 11.4402 58.1362 12.1747 57.5116C12.9023 56.8801 14.0595 57.0037 14.7593 57.7862C15.1404 58.2255 15.3067 58.7677 15.2513 59.2756C15.4245 59.4747 16.1937 60.3464 16.1937 60.3464L16.3739 60.1885C16.5402 60.0512 16.6164 59.8316 16.5402 59.7423C16.5679 59.7149 16.6164 59.6737 16.6441 59.6463C16.6857 59.6943 17.4271 60.5385 17.4687 60.5866C17.4202 60.6209 14.0526 63.5449 14.004 63.5861ZM22.5478 68.7476L22.534 68.7202L22.5063 68.7408C21.5223 69.2899 20.8017 69.3654 20.8017 69.3654C20.7878 69.3242 20.5868 68.83 20.5591 68.7682C22.7141 68.0612 23.4417 66.51 23.4556 66.4826V66.4757C23.6704 66.009 23.4209 65.8168 23.414 65.8099C23.4209 65.7756 23.4486 65.707 23.4625 65.6795C23.5249 65.7138 24.7513 66.2698 24.8068 66.2973C24.4326 67.1003 23.906 67.7524 23.1923 68.2878L23.1715 68.3015L23.1992 68.3633C23.5734 69.0496 23.8436 69.6948 23.9545 70.1753C23.9129 70.2027 23.2061 70.6008 23.116 70.6489C22.9151 69.5026 22.6933 69.0496 22.5478 68.7476ZM23.414 72.4472C23.4417 72.3786 25.0216 68.9879 25.0216 68.9879C25.0216 68.9879 24.1069 68.5692 24.0515 68.5417C24.0792 68.4937 24.3564 67.8897 24.3841 67.8279C24.4395 67.8553 25.3542 68.2672 25.3542 68.2672L25.8462 67.2033C25.9362 67.018 25.9224 66.7846 25.8184 66.7297H25.8115C25.8254 66.6954 25.8531 66.6336 25.8739 66.5993C25.9293 66.6267 26.8994 67.0729 26.8994 67.0729C26.8648 67.1415 24.2663 72.7561 24.2316 72.8178C24.1831 72.7973 23.4764 72.4678 23.414 72.4472ZM25.5551 73.415C25.4928 73.3944 24.682 73.0169 24.6197 72.9963C24.6474 72.9345 27.2528 67.32 27.2874 67.2513C27.3498 67.2719 28.216 67.67 28.216 67.67H28.2229C28.1883 67.7386 25.5759 73.3601 25.5551 73.415ZM42.2477 75.9477C42.1784 75.9477 41.2915 75.9477 41.2222 75.9477C41.2222 75.8791 41.2222 72.1452 41.2222 72.1452H40.7579C40.7579 72.1452 40.7579 75.886 40.7579 75.9477C40.6956 75.9477 39.871 75.9477 39.8086 75.9477C39.8086 75.9271 39.8086 75.4124 39.8086 74.6985C39.1018 74.6985 36.3994 74.6985 36.3371 74.6985C36.3371 74.6299 36.3371 70.3332 36.3371 70.3332C36.3371 70.1204 36.2262 69.9213 36.1084 69.9213C36.1084 69.8801 36.1084 69.8184 36.1084 69.7841C36.1708 69.7841 38.9217 69.7841 38.984 69.7841C38.984 69.839 38.984 70.5048 38.984 70.5665C38.9217 70.5665 37.3626 70.5665 37.3626 70.5665V73.9092C37.3626 73.9092 39.2335 73.9092 39.8086 73.9092C39.8086 72.2482 39.8086 70.1753 39.8086 70.1753C39.8086 69.9625 39.6908 69.7635 39.58 69.7635C39.58 69.7223 39.58 69.6605 39.58 69.6262C39.6423 69.6262 40.6956 69.6262 40.7579 69.6262C40.7579 69.688 40.7579 71.3559 40.7579 71.3559H41.2222C41.2222 71.3559 41.2222 69.688 41.2222 69.6262C41.2915 69.6262 42.2477 69.6262 42.2477 69.6262C42.2477 69.6948 42.2477 75.8791 42.2477 75.9477ZM50.9786 69.8115C50.7846 69.4065 50.7984 68.9604 50.9786 68.5486C50.6183 68.7202 50.3688 68.8437 50.355 68.8437C50.3273 68.7957 50.0432 68.1848 50.0085 68.1367C50.0709 68.1093 51.3874 67.4847 51.3874 67.4847L51.3666 67.4504C51.2627 67.2856 51.1033 67.1896 51.0133 67.2239V67.2307C50.9925 67.1895 50.9647 67.1346 50.9509 67.1003C51.0063 67.0729 52.0804 66.5718 52.0804 66.5718C52.1081 66.6199 52.316 67.0523 52.316 67.0523C52.316 67.0523 53.5424 66.462 53.6048 66.4345C53.6256 66.4894 53.9166 67.0866 53.9374 67.1415C53.9235 67.1552 53.6533 67.2856 53.2514 67.471C53.681 67.5876 54.0552 67.8622 54.2423 68.2603C54.6165 69.0496 54.2007 70.0449 53.2999 70.4773C52.406 70.8891 51.3597 70.6008 50.9786 69.8115ZM56.7576 68.7202C56.7022 68.7476 55.8984 69.132 55.843 69.1663C55.8152 69.0977 54.4917 66.3933 54.4917 66.3933C54.4017 66.2012 54.2146 66.0708 54.1037 66.1188V66.1257C54.0899 66.0845 54.0552 66.0227 54.0413 65.9953C54.0968 65.9609 55.1154 65.4805 55.1708 65.453C55.1985 65.5148 55.9469 67.0454 55.9469 67.0454C55.9469 67.0454 56.7923 66.6336 56.8477 66.6061C56.8754 66.6679 57.1387 67.1964 57.1595 67.2513C57.0971 67.2788 56.2518 67.6769 56.2518 67.6769C56.2518 67.6769 56.723 68.6653 56.7576 68.7202ZM57.0071 71.5892C56.9794 71.5343 56.4181 70.3606 56.4181 70.3606C56.4181 70.3606 52.6208 72.1589 52.5654 72.1932C52.5377 72.1383 52.2467 71.5412 52.2189 71.4794C52.2813 71.4588 56.9309 69.235 57.0001 69.2075C57.0279 69.2693 57.9079 71.095 57.9425 71.1431C57.8802 71.1774 57.0694 71.5618 57.0071 71.5892ZM39.3652 67.4161C23.5179 67.4161 10.678 54.6906 10.678 39C10.678 23.2957 23.5249 10.5771 39.3652 10.5771C55.2124 10.5771 68.0592 23.2957 68.0592 39C68.0592 54.6906 55.2055 67.4161 39.3652 67.4161ZM65.9874 64.6911C65.9389 64.6499 65.4261 64.2175 65.3776 64.1832C65.4192 64.142 66.1052 63.3115 66.1052 63.3115L64.8094 62.2545C64.6431 62.1172 64.4075 62.0692 64.3382 62.1653C64.3036 62.1378 64.262 62.0966 64.2274 62.0692C64.2689 62.028 64.9064 61.2592 64.948 61.1975C65.0034 61.2455 66.6734 62.6183 66.6734 62.6183L67.0129 62.2202C67.0129 62.2202 65.3361 60.8406 65.2875 60.7994C65.3291 60.7513 65.8696 60.1061 65.9112 60.0512C65.9597 60.0924 67.6435 61.472 67.6435 61.472C67.6435 61.472 67.8583 61.2043 68.1355 60.868C67.401 60.2571 64.8233 58.15 64.8233 58.15C64.8233 58.15 62.308 61.1426 62.2733 61.1906C62.2248 61.1563 61.712 60.7307 61.6635 60.6895C61.7051 60.6346 64.8649 56.8664 64.8649 56.8664H64.8718C64.9134 56.9007 67.9761 59.406 68.7937 60.0924C69.0155 59.8384 69.1749 59.6394 69.1887 59.6188C69.2303 59.66 69.75 60.0924 69.7985 60.1199C69.7638 60.1748 66.0359 64.6362 65.9874 64.6911ZM69.8401 31.5871L69.5906 31.6558L68.8769 29.2603L69.1333 29.1917C69.2649 29.6172 69.3204 29.7957 69.6807 29.6927C69.6807 29.6927 73.4017 28.6014 74.0531 28.4161C73.8175 27.613 73.762 27.4414 73.7343 27.3522C73.5888 26.8648 73.3116 26.8786 72.9236 26.9335L72.8474 26.6521L74.0115 26.4873L75.3766 31.0655L74.3094 31.5528L74.2194 31.2577C74.5728 31.0998 74.8222 30.9625 74.6767 30.4889C74.649 30.3997 74.5935 30.2212 74.3579 29.425C73.7897 29.5898 70.3598 30.5919 69.9787 30.7017C69.556 30.8252 69.7292 31.2233 69.8401 31.5871ZM71.8357 49.4879C71.2121 49.4879 70.7201 48.9868 70.7201 48.3759C70.7201 47.7651 71.2121 47.264 71.8357 47.264C72.4593 47.264 72.9582 47.7651 72.9582 48.3759C72.9582 48.9868 72.4593 49.4879 71.8357 49.4879ZM75.9863 38.293C75.9863 38.2175 75.9448 38.1077 75.8755 38.0116C75.7992 37.8743 75.7092 37.8194 75.5013 37.6753C75.1825 37.4625 73.3601 36.6251 73.0414 36.529C72.785 36.4398 72.5633 36.4673 72.3346 36.4947C72.3346 36.4947 71.6555 36.5496 71.1151 36.6114C70.5676 36.6595 70.6369 37.037 70.6785 37.4557L70.4429 37.4762L70.1935 35.019L70.4429 34.9847C70.4776 35.3553 70.5191 35.6093 70.9903 35.5612C71.4615 35.5132 72.2237 35.4377 72.2237 35.4377C72.6118 35.4034 72.7504 35.321 72.9582 35.1975C73.0553 35.1494 74.5728 34.0169 74.9331 33.7286C75.1617 33.5364 75.335 33.3374 75.4043 33.2001C75.4874 33.0079 75.4458 32.7196 75.4458 32.7196L75.7092 32.6991L75.917 34.7788L75.6607 34.8131C75.6607 34.8131 75.6537 34.6895 75.6329 34.6346L75.6191 34.6072C75.6052 34.566 75.5706 34.5591 75.5498 34.566C75.4944 34.566 75.3766 34.6346 75.335 34.6621C75.1618 34.765 73.3671 36.0486 73.3671 36.0486C73.3671 36.0486 75.2657 36.8585 75.3766 36.8928C75.529 36.9477 75.6468 36.9615 75.7369 36.9477C75.8062 36.9477 75.8547 36.8928 75.8408 36.8448C75.8408 36.7967 75.827 36.6526 75.827 36.6526L76.1041 36.632L76.2912 38.4852L76.021 38.5127C76.014 38.4921 76.0002 38.3548 75.9863 38.293Z" fill="#C4C4C4"/>
<path d="M41.2708 27.2286L49.3226 31.5871L52.1844 25.6294H44.3058L41.2708 27.2286Z" fill="#C4C4C4"/>
<path d="M53.9167 26.5423L51.4291 31.7176H57.7486L53.9167 26.5423Z" fill="#C4C4C4"/>
<path d="M39.1989 28.32L32.7408 31.7175H45.4768L39.1989 28.32Z" fill="#C4C4C4"/>
<path d="M37.1479 27.2012L34.2376 25.6294H26.5392L29.2624 31.3538L37.1479 27.2012Z" fill="#C4C4C4"/>
<path d="M35.4987 49.028L28.1952 33.66H21.2798L35.4987 49.028Z" fill="#C4C4C4"/>
<path d="M20.9819 31.7176H27.2736L24.8138 26.5491L20.9819 31.7176Z" fill="#C4C4C4"/>
<path d="M48.3247 33.66H30.3641L39.2959 52.4599L48.3247 33.66Z" fill="#C4C4C4"/>
<path d="M50.4936 33.66L42.9823 49.3026L57.4575 33.66H50.4936Z" fill="#C4C4C4"/>
<path d="M38.0348 54.6426L21.7788 37.0713L31.2926 61.9319L38.0348 54.6426Z" fill="#C4C4C4"/>
<path d="M47.4378 61.9319L56.9586 37.0713L40.6956 54.6426L47.4378 61.9319Z" fill="#C4C4C4"/>
<path d="M27.4791 19.6265L25.7789 21.3106L27.4791 22.9947L29.1793 21.3106L27.4791 19.6265Z" fill="#C4C4C4"/>
<path d="M39.3668 16.048L37.6666 17.7322L39.3668 19.4163L41.067 17.7322L39.3668 16.048Z" fill="#C4C4C4"/>
<path d="M51.2526 19.6251L49.5524 21.3093L51.2526 22.9934L52.9528 21.3093L51.2526 19.6251Z" fill="#C4C4C4"/>
</svg>
